<svg version="1.1" class="Temperature-depart" xmlns="http://www.w3.org/2000/svg" viewBox="0 0 80 160" xml:space="preserve">
	<style type="text/css">
		.svg-ge-tdepart-contour		{fill:none; stroke:#D70308; stroke-width:4; stroke-miterlimit:10;}
		.svg-ge-tdepart-mercure     {fill:#D70308;}
		.svg-ge-tdepart-thermometre	{fill:#FFFFFF;}
	</style>
	<path class="svg-ge-tdepart-contour" d="M80,149.9c-38.6,0-70-30.9-70-69c0-31.3,21.1-57.7,50-66.1l-20.2,31l-8.3-14.4"/>
	<path class="svg-ge-tdepart-mercure" d="M59.5,110.3V67.1h-6v43.2c-2.1,1.1-3.5,3.3-3.5,5.8c0,3.6,2.9,6.5,6.5,6.5s6.5-2.9,6.5-6.5 C63,113.6,61.6,111.4,59.5,110.3z"/>
	<path class="svg-ge-tdepart-thermometre" d="M67.5,65.1v-2h-4V59c0-3.9-3.1-7-7-7c-3.9,0-7,3.1-7,7c0,0.1,0,49.3,0,49.3c-2.2,2-3.5,4.8-3.5,7.8 c0,5.8,4.7,10.5,10.5,10.5S67,121.9,67,116.1c0-3-1.3-5.8-3.5-7.8v-8.2h4v-2h-4v-3h4v-2h-4v-3h4v-2h-4v-3h4v-2h-4v-3h4v-2h-4v-3h4 v-2h-4v-3h4v-2h-4v-3H67.5z M65,116.1c0,4.7-3.8,8.5-8.5,8.5s-8.5-3.8-8.5-8.5c0-2.8,1.4-5.3,3.5-6.9V59c0-2.8,2.2-5,5-5s5,2.2,5,5 v50.2C63.6,110.7,65,113.2,65,116.1z"/>
</svg>
