<svg version="1.1" class="Temperature-retour" xmlns="http://www.w3.org/2000/svg" viewBox="0 0 80 160" xml:space="preserve">
	<style type="text/css">
		.svg-ge-tretour-contour		{fill:none; stroke:#007edf; stroke-width:4; stroke-miterlimit:10;}
		.svg-ge-tretour-mercure     {fill:#007edf;}
		.svg-ge-tretour-thermometre	{fill:#FFFFFF;}
	</style>
<path class="svg-ge-tretour-contour" d="M80,11c-38.6,0-70,30.9-70,69c0,31.3,21.1,57.7,50,66.1l-20.2-31l-8.3,14.4"/>
<path class="svg-ge-tretour-mercure" d="M59.5,92.4V76.2h-6v16.2c-2.1,1.1-3.5,3.3-3.5,5.8c0,3.6,2.9,6.5,6.5,6.5s6.5-2.9,6.5-6.5C63,95.7,61.6,93.5,59.5,92.4z"/>
<path class="svg-ge-tretour-thermometre" d="M67.5,47.2v-2h-4v-4.1c0-3.9-3.1-7-7-7c-3.9,0-7,3.1-7,7c0,0.1,0,49.3,0,49.3c-2.2,2-3.5,4.8-3.5,7.8
	c0,5.8,4.7,10.5,10.5,10.5S67,104,67,98.2c0-3-1.3-5.8-3.5-7.8v-8.2h4v-2h-4v-3h4v-2h-4v-3h4v-2h-4v-3h4v-2h-4v-3h4v-2h-4v-3h4v-2
	h-4v-3h4v-2h-4v-3H67.5z M65,98.2c0,4.7-3.8,8.5-8.5,8.5s-8.5-3.8-8.5-8.5c0-2.8,1.4-5.3,3.5-6.9V41.1c0-2.8,2.2-5,5-5s5,2.2,5,5
	v50.2C63.6,92.8,65,95.3,65,98.2z"/>
</svg>
