<svg version="1.1" class="Etat" xmlns="http://www.w3.org/2000/svg" x="0" y="0" viewBox="0 0 80 160" xml:space="preserve"> 
	<style type="text/css">
		.svg-ge-etat-contour			{fill:none; stroke: #50bd00; stroke-width:4; stroke-miterlimit:10;}
		.svg-ge-etat-alerte		        {fill:none; stroke-width:4; stroke-miterlimit:10;}
		.svg-ge-etat-cloche				{fill:none;stroke:#FFF;stroke-width:3.5;stroke-miterlimit:10;}
		.svg-ge-etat-battant			{fill:#FFFFFF;}
		.svg-ge-none		   			{display: none;}
		.svg-ge-green-s        			{stroke:#50bd00;}
		.svg-ge-grey-s                  {stroke:#696969;}
		.svg-ge-orange-s                {stroke:#FFAA00;}
		.svg-ge-red-s                   {stroke:#d70308;}	
	</style>
	<path class="svg-ge-etat-contour svg-ge-none" d="M80 149.9c-38.6 0-70-30.9-70-69 0-38.1 31.3-69 70-69"/>
	<g class="svg-ge-etat-alerte svg-ge-green-s">
		<path class="svg-ge-etat-alerte-3" d="M30.9 130C18 117.5 10 100.1 10 80.9c0-19.2 8-36.6 20.8-49.1"/>
		<path class="svg-ge-etat-alerte-2" d="M36.1 116.2c-9.2-9-14.9-21.5-14.9-35.3 0-13.8 5.7-26.3 14.9-35.3"/>
		<path class="svg-ge-etat-alerte-1" d="M41.4 102.3c-5.5-5.5-8.9-13.1-8.9-21.5 0-8.4 3.4-16 8.9-21.5"/>
	</g>
	<path class="svg-ge-etat-cloche" d="M115.5,120.1c-7.3-3.8-12.5-12.7-12.5-22.9V67.5c0-11-6.2-20.2-15.7-23c-0.2-3.9-3.4-7-7.3-7s-7.1,3.1-7.3,7 c-9.5,2.9-15.7,12-15.7,23v26.9c0,10.2-5.2,19-12.5,22.9c-1.2,0.6-0.9,1-0.9,1.7v4.6c0,1,0.7,1.9,1.6,1.9h69.8 c0.9,0,1.6-0.9,1.6-1.9v-1.7C116.5,121.1,116.7,120.8,115.5,120.1z"/>
	<path class="svg-ge-etat-battant" d="M65,130.5c0,3.7-3,6.8-6.8,6.8c-3.7,0-6.8-3-6.8-6.8H65z"/>
</svg>
