<svg version="1.1" class="Pression" xmlns="http://www.w3.org/2000/svg" x="0px" y="0px" viewBox="0 0 80 160" xml:space="preserve">
	<style type="text/css">
		.svg-ge-pression-contour		{fill:none; stroke:#d70308; stroke-width:4; stroke-miterlimit:10;}
		.svg-ge-pression-graduation		{fill:none; /*stroke:#007edf;*/ stroke:#FFFFFF; stroke-width:3; stroke-miterlimit:10;}
		.svg-ge-pression-aiguille		{fill:#d70308; /*stroke:#007edf;*/ }
	</style>
	<path class="svg-ge-pression-contour" d="M80,149.9c-38.6,0-70-30.9-70-69s31.3-69,70-69"/>
	<g class="svg-ge-pression-graduation">
		<line x1="65.8" y1="24.8" x2="63.7" y2="16.4"/>
		<line x1="80" y1="23.1" x2="80" y2="14.5"/>
		<line x1="52.5" y1="29.9" x2="48.4" y2="22.2"/>
		<line x1="40.8" y1="37.9" x2="34.9" y2="31.5"/>
		<line x1="31.4" y1="48.6" x2="24.2" y2="43.7"/>
		<line x1="24.9" y1="61.1" x2="16.7" y2="58.2"/>
		<line x1="21.7" y1="74.8" x2="13" y2="73.9"/>
		<line x1="22" y1="88.9" x2="13.3" y2="90.1"/>
		<line x1="25.7" y1="102.5" x2="17.6" y2="105.8"/>
		<line x1="32.6" y1="114.9" x2="25.5" y2="119.9"/>
		<line x1="42.3" y1="125.2" x2="36.7" y2="131.8"/>
	</g>
	<g class="svg-ge-pression-aiguille">
		<path d="M80,87.4c-3.6,0-6.6-2.9-6.6-6.5c0-3.6,2.9-6.5,6.6-6.5"/>
		<path d="M79.7,81.2c0,0-1.5,0.2-2.9-0.7c-0.4-0.2-0.7-0.5-1-0.9c-0.4-0.3-0.7-0.7-1.1-1.1	c-0.8-0.8-1.7-1.7-2.7-2.7c-1-1-2.1-2-3.2-3.2c-1.1-1.1-2.3-2.3-3.6-3.5c-2.5-2.5-5.1-5.1-7.6-7.8C52.3,56,47.2,50.7,43.3,46.6 c-1.9-2-3.5-3.7-4.6-4.9c-1.1-1.2-1.2-2.4-1.2-2.4l0,0c0,0,1.2,0.1,2.4,1.2c1.2,1.1,2.9,2.6,5,4.5c4.1,3.8,9.6,8.8,15.1,13.8	c2.7,2.5,5.4,5.1,8,7.5c1.3,1.2,2.5,2.4,3.6,3.5c1.1,1.1,2.2,2.2,3.2,3.1c1,1,1.9,1.9,2.7,2.7c0.4,0.4,0.8,0.8,1.1,1.1 c0.4,0.3,0.7,0.7,0.9,1c0.9,1.4,0.7,2.9,0.7,2.9L79.7,81.2z"/>
	</g>
</svg>
