<svg version="1.1" class="Combustible" xmlns="http://www.w3.org/2000/svg" x="0px" y="0px" viewBox="0 0 80 160" xml:space="preserve">
	<style type="text/css">
		.svg-ge-combustible_flamme		{fill: #FFFFFF;}
		.svg-ge-combustible_tube		{fill:none; stroke:#FFAA00; stroke-width:2; stroke-linejoin:bevel; stroke-miterlimit:10;}
		.svg-ge-combustible_poignee		{fill: #FFAA00;}
		.svg-ge-combustible-tuyaux		{fill:none;stroke:#FAA31B;stroke-width:4;stroke-miterlimit:10;}
	</style>
	<path class="svg-ge-combustible-tuyaux" d="M80,149.9c-34.8,0-63.7-25.1-69.1-57.9"/>
	<g>
		<path class="svg-ge-combustible_tube" d="M39.3,32.8L34.2,28c2.1-1.9,9.4-8.7,11.9-10.6c3-2.3,26.8-10.3,26.8-10.3l2.2,6.4c0,0-20.1,7-22.2,7.8	c-2.1,0.9-4.7,2.9-5.2,3.2c-0.5,0.4-0.2,1.3-0.8,1.9c-0.7,0.6-1.5,0.2-2.3,0.8c-0.7,0.6-0.2,1.7-0.8,2.2c-0.7,0.6-1.4,0.3-2,0.9	C41.6,30.5,39.3,32.8,39.3,32.8z"/>
		<path class="svg-ge-combustible_poignee" d="M42.3,46.5c-1.6-3.5-6.8-8.2-6.8-8.2l5.5-5.8l-6.6-6.1c0,0-5.3,5.1-8.9,6.9c-3.6,1.9-7,3.4-7.5,3.8	c-0.5,0.5-3.3,8.7-3.3,8.7l2.1,1.4L7.6,68.7c0,0-2.2,6.6-2.2,12.1c0,5.9,3.8,13.5,3.8,13.5l4.5-0.6c0,0-0.6-10.3,0.6-13.9 C15.5,76.2,17,73,17,73l2.7-6c0,0,13.1,4.6,18,2.5C40.4,68.3,43.8,50,42.3,46.5z M30.1,66.7c0,0-2.4-0.3-4.1-0.7s-5.1-1.6-5.1-1.6	l7.2-17l2.9-0.5c0,0-0.8,2.2-1.2,4.1C29.4,53.1,30.1,66.7,30.1,66.7z M37.1,65.9c-0.7,0.5-4.7,0.5-5-0.1c-0.3-0.5-0.5-12.6,0-14.6 c0.5-2,2.3-4.8,2.3-4.8s2.7-0.4,4.1,1.1C40.9,50.2,37.8,65.4,37.1,65.9z"/>
	</g>
	<g class="svg-ge-combustible_flamme">
		<path d="M46.3,111.7c2.3,1.9,5.8,3.1,9.6,3.7c-1.2-1.7-3.5-5-5.2-8.3c-2.4-4.8-1.6-10.2-1.6-10.2s1.4,2.5,2.3,3.7 c0.9,1.2,4.3,3.6,4.3,3.6s-1.4-2.8-1.6-4.1c-0.3-1.3,0-5.1,0-5.1s0.7,0.3,1.5,1.2c0.8,0.9,2.9,2.4,2.9,2.4s-1.7-6.2-1.6-10 c0.1-3.9,6.2-8,6.2-8s0.1,2.8-1.6,6.3c-1.6,3.5,0,8.4,0,8.4s0.9-3.6,1.6-5.1c0.7-1.5,3-4.2,3-4.2s0.2,5.4,0.1,8.6	c-0.1,3.2-1.1,8.9-1.1,8.9s3-3.9,3.3-6c0.3-2.1,2.9-6,2.9-6s0.5,3.6,0.3,5.1s-0.3,4.9-0.3,4.9s2-0.4,3.4-0.7s3.5-1.8,3.5-1.8 s-2.8,6.6-4.9,9.8c-1.5,2.2-5.1,5.1-7.2,6.7c2.9-0.4,5.7-1.2,8-2.5c10.4-5.5,11.3-17.8,11.9-20.9c0.6-3.1,3-5.9,3-5.9s-3,1-4.9,2.3	s-1.9,1.3-1.9,1.3s1.3-3.9,1-8.3c-0.2-4.5-1.8-7.3-1.8-7.3s-3.4,2.4-5.1,4.2c-1.7,1.8-3.9,4.6-3.9,4.6s-1.6-6.2-0.8-11.8 c0.8-5.6,5.1-10.8,5.1-10.8s-5.1,2.1-8.2,4.6c-3.1,2.5-5.4,5.6-5.4,5.6s-0.1-7.7,0.3-10c0.4-2.3,2-8.6,2-8.6s-7.1,5.5-9.6,12.1	c-2.5,6.6-0.9,14.1-0.9,14.1s-3.1-3-4-5c-0.9-2-0.4-6.6-0.4-6.6s-2.9,6.1-3.1,10.7s1.6,9.1,1.6,9.1s-3.8-2.4-5.3-4.2 c-1.5-1.8-3.1-7.1-3.1-7.1s-1.1,8.2-0.4,11.1c0.8,2.9,2.6,9.3,2.6,9.3s-1.9-0.9-3.7-2.7c-1.6-1.6-2.6-3.7-2.6-3.7 S35.7,102.9,46.3,111.7z M57.1,71.5c0.5-2.7,1.8-5.2,1.8-5.2s0.6,2.6,1.1,5.4c0.6,3,0.9,6.1-1.1,6.2C56.7,78,56.4,74.6,57.1,71.5z"/>
		<rect x="41.1" y="119.4" width="40.5" height="2.6"/>
	</g>
</svg>
