<svg version="1.1" class="Pompe" xmlns="http://www.w3.org/2000/svg" x="0" y="0" viewBox="0 0 80 80" xml:space="preserve">
	<style type="text/css">
		.svg-color 	{fill:#505050;}
	</style>
	<g class="svg-color">
		<circle cx="40" cy="40" r="2.4"/>
		<path d="M40,48.2c-4.5,0-8.2-3.7-8.2-8.2s3.7-8.2,8.2-8.2s8.2,3.7,8.2,8.2C48.2,44.5,44.5,48.2,40,48.2z M40,33.2 c-3.8,0-6.8,3.1-6.8,6.8c0,3.8,3.1,6.8,6.8,6.8c3.8,0,6.8-3.1,6.8-6.8C46.8,36.2,43.8,33.2,40,33.2z"/>
		<path d="M40,1C18.5,1,1,18.5,1,40s17.5,39,39,39s39-17.5,39-39S61.5,1,40,1z M59,69c-2.5-0.2-8.6-1-14.5-5.3 c-5.2-3.8-9.9-12.4-9.9-12.4s-0.8,9.4,6.5,16c4.3,3.9,7.3,5.4,8.9,6c-3.1,0.9-6.4,1.4-9.9,1.4c-12.1,0-22.8-6.3-29-15.7 c0.2-2.5,1-8.6,5.3-14.5c3.8-5.2,12.4-9.9,12.4-9.9s-9.4-0.8-16,6.5c-3.9,4.3-5.4,7.3-6,8.9c-0.9-3.1-1.4-6.4-1.4-9.9 c0-12.1,6.3-22.8,15.7-29c2.5,0.2,8.6,1,14.5,5.3c5.2,3.8,9.9,12.4,9.9,12.4s0.8-9.4-6.5-16c-4.3-3.9-7.3-5.4-8.9-6 c3.1-0.9,6.4-1.4,9.9-1.4c12.1,0,22.8,6.3,29,15.7c-0.2,2.5-1,8.6-5.3,14.5c-3.8,5.2-12.4,9.9-12.4,9.9s9.4,0.8,16-6.5 c3.9-4.3,5.4-7.3,6-8.9c0.9,3.1,1.4,6.5,1.4,9.9C74.7,52.1,68.4,62.8,59,69z"/>
	</g>
</svg>