<svg version="1.1" class="Reglage" xmlns="http://www.w3.org/2000/svg" x="0px" y="0px" viewBox="0 0 80 80" xml:space="preserve">
	<style type="text/css">
		.svg-color	{fill:#505050;}
	</style>
	<path class="svg-color" d="M77.5,45.4V34.6l-9-2.2c-0.7-2.6-1.7-5-3-7.2l4.8-7.9l-7.6-7.6l-7.9,4.8c-2.2-1.3-4.7-2.3-7.2-3l-2.2-9H34.6l-2.2,9
		c-2.6,0.7-5,1.7-7.2,3l-7.9-4.8l-7.6,7.6l4.8,7.9c-1.3,2.2-2.3,4.7-3,7.2l-9,2.2v10.8l9,2.2c0.7,2.6,1.7,5,3,7.2l-4.8,7.9l7.6,7.6
		l7.9-4.8c2.2,1.3,4.7,2.3,7.2,3l2.2,9h10.8l2.2-9c2.6-0.7,5-1.7,7.2-3l7.9,4.8l7.6-7.6l-4.8-7.9c1.3-2.2,2.3-4.7,3-7.2L77.5,45.4z
		 M40,61.5c-11.8,0-21.5-9.7-21.5-21.5S28.2,18.5,40,18.5S61.5,28.1,61.5,40S51.8,61.5,40,61.5z"/>
</svg>