<svg version="1.1" class="Debit" xmlns="http://www.w3.org/2000/svg" x="0" y="0" viewBox="0 0 80 80" xml:space="preserve">
	<style type="text/css">
		.svg-color 	{fill:#505050;}
	</style>
	<g class="svg-color">
		<polygon points="71.1 54.6 71.7 58.4 8.9 73.4 8 69.6 "/> 
		<polygon points="8.9 4.5 8 8.4 71.1 23.4 71.9 19.5 "/> 
		<path d="M24.7 35.8c5 0 8.8 2.1 12.6 4 3.5 1.9 7.2 3.8 11.5 3.8 2.9 0 5.1-0.4 7.5-0.9 1.8-0.3 3.6-0.7 5.8-0.9l-0.1 4L72.5 40l-10.3-6.1 -0.1 4c-2.7 0.2-4.8 0.6-6.7 1 -2.3 0.4-4.2 0.8-6.7 0.8 -3.3 0-6.3-1.6-9.7-3.3 -4-2.1-8.5-4.5-14.5-4.5 -11.2 0-17.3 7.6-17.6 7.9l3.1 2.5C10.4 42 15.5 35.8 24.7 35.8zM23 22.8c5.6 0 10.2 3 14.2 5.7 3.4 2.2 6.3 4.1 9.3 4.1 1.9 0 3.4-0.1 5.1-0.3 0.8-0.1 1.7-0.1 2.6-0.2v4l10.4-6 -10.4-6v4c-1.1 0.1-2 0.1-2.9 0.2 -1.6 0.1-3 0.3-4.7 0.3 -1.8 0-4.4-1.7-7.1-3.5 -4.3-2.8-9.7-6.4-16.4-6.4 -7.8 0-14.3 4.9-14.6 5.1l2.4 3.2C10.9 27 16.5 22.8 23 22.8zM54.1 48.1c-1.7 0.2-3.2 0.5-4.6 0.8 -2.1 0.4-3.9 0.8-5.6 0.8 -2.4 0-4.8-1.1-7.4-2.3 -3.2-1.5-6.9-3.2-11.3-3.2C16.9 44.2 7.4 54.4 7 54.8l3 2.7c2.4-2.6 9.8-9.3 15.2-9.3 3.5 0 6.7 1.4 9.7 2.8 2.9 1.3 5.9 2.7 9.1 2.7 2.1 0 4.2-0.4 6.4-0.9 1.2-0.2 2.5-0.5 3.8-0.7V56l10.3-6 -10.4-5.9V48.1z"/>
	</g>
</svg>