<svg version="1.1" class="Bruleur" xmlns="http://www.w3.org/2000/svg" x="0px" y="0px" viewBox="0 0 80 80" xml:space="preserve">
	<style type="text/css">
		.svg-color	{fill:#505050;}
	</style>
	<path class="svg-color" d="M68.2,42.5l-1-2.2L66,42.4c-0.2,0.3-0.4,0.7-0.6,1c0.2-1.2,0.3-2.4,0.3-3.5c0-3.3-1.6-9.2-1.7-9.4l-1-3.6
		l-1.3,3.5c-0.3,0.9-1.3,3.3-1.8,4.2c-0.3,0.4-0.6,0.8-1,1.2c-0.5-1.1-1-2.5-1.1-3.9c-0.4-3.8,0.3-7.9,0.3-7.9l0.9-5.4l-6.1,8.8
		c-0.3-1.1-0.6-2.4-0.7-3.5c-0.1-1.7,0.7-6,1-7.5l0.6-2.8L51.4,15c-0.1,0-2,1.2-3.5,2.9c0-0.6-0.1-1.4-0.1-2.5
		c0-5.4-4.6-10.9-4.8-11.1l-1.7-2l-0.5,2.5c0,0.1-0.6,2.7-1.3,4.6c-0.3,0.6-0.7,1.3-1.3,2.1c-1.1,1.5-2.5,3.7-3.9,7
		c-0.6,1.4-1.3,3.7-1.9,5.4c-0.6-1-1.2-2.1-1.3-2.8c-0.2-0.9-0.5-3.3-0.5-3.3l-0.3-2.6l-1.8,1.9c-0.2,0.2-3.5,3.7-5.7,9.2
		c-0.9,2.3-1.5,5.4-1.8,7.5c0-0.1-0.1-0.1-0.1-0.2c-0.8-1.5-1.3-2.9-1.3-2.9l-0.9-2.6l-1.4,2.4c-0.1,0.2-2.2,3.9-1.9,9.1
		c0.2,2.5,0.5,4.9,0.8,6.6c-0.1-0.1-0.3-0.2-0.4-0.3c-1-0.7-1.8-2.5-2-3.1l-1.4-4l-1,4.1c0,0.1-0.6,2.7-0.7,5.7
		c-0.1,1.5,0.1,2.9,0.2,4l-2.3-0.4v1.5c0,0.3,0.2,7.7,4.7,12c7.7,7.4,16.2,10.6,28.3,10.6c0.8,0,1.5,0,2.1-0.1
		C64.4,75.4,69.7,63.8,71,57C72.2,51.4,68.4,42.9,68.2,42.5z M68.8,56.6c-1.1,6-5.8,16.3-24.4,17.2c2.2-1.2,6.5-3.9,8.3-6.5
		c4.7-6.9,5.7-12.6,5.7-12.6s-0.9,0.8-2.1,1.4c-1.1,0.6-2.3,0.7-2.3,0.7s1.4-3.4,1.4-6.3c0-2.7-0.4-5.1-0.4-5.1s-1.5,2.7-2.8,4.4
		c-1.5,2-3.6,2.6-3.6,2.6s-0.1-6.2-0.6-9.1c-0.9-4.9-3.2-9.7-3.2-9.7s-0.2,10.8-1,13.4c-0.8,2.6-3.5,7-3.5,7s-1.6-0.8-2.7-3.6
		c-1-2.4-1.2-5-1.2-5s-1.7,3.6-1.8,8.1c-0.1,4,1.2,8.4,1.2,8.4s-2.6-1.5-4.4-7.2c-1.4-4.4-1.1-10.2-1.1-10.2s-1.7,3.6-2.9,6.5
		C26.1,54,26.1,56,26.1,56l-2.6-0.9c0,0,0.5,6.8,4.3,12.4c1.6,2.3,3.6,4.3,4.9,5.5c-7-1.3-12.6-4.2-17.8-9.2
		c-2.7-2.5-3.5-6.5-3.8-8.7l3,0.6L13.8,54c0,0-0.6-2.6-0.5-5.2c0-0.6,0-1.2,0.1-1.8c0.2,0.3,0.6,0.6,0.9,0.9c1.6,1.2,3.1,2.1,3.2,2.1
		l2.4,1.3l-0.6-2.7c0,0-1-4.4-1.3-9.1c-0.1-1.9,0.1-3.7,0.5-5c0,0.1,0.1,0.2,0.2,0.4c0.9,1.5,2.6,2.3,2.8,2.4l1.6,0.7l0.2-1.8
		c0-0.1,0.6-5.7,1.9-9c1-2.6,2.3-4.7,3.4-6.2c0,0.2,0.1,0.4,0.1,0.5c0.4,2.3,3,5.5,3.3,5.9l1.5,1.8l0.7-2.2c0.1-0.1,1.6-5.3,2.6-7.6
		c1.3-3,2.6-5.1,3.6-6.6c0.6-0.9,1.1-1.7,1.5-2.5c0.3-0.8,0.6-1.6,0.8-2.4c1.2,1.9,2.7,4.7,2.7,7.4c0,4.3,0.8,5.7,1.1,6.1l1.4,1.8
		l0.7-2.1c0.1-0.1,0.4-0.5,1.2-1.5c0.2-0.2,0.3-0.4,0.5-0.6c-0.3,1.8-0.5,3.8-0.4,5c0.2,2.8,1.5,6.4,1.6,6.5l0.8,2.2l3.1-4.4
		c0,1.1,0,2.4,0.1,3.7c0.2,3.1,2.1,6.3,2.2,6.4l0.7,1.2l1.1-0.9c0.2-0.1,1.9-1.5,2.7-2.9c0.1-0.2,0.3-0.6,0.5-1
		c0.3,1.7,0.7,3.7,0.7,5.1c0,2.9-1,7.3-1,7.3l-0.9,4.2l3-3c0.1-0.1,1.6-1.7,2.2-2.3c0.1-0.1,0.2-0.2,0.3-0.3
		C68.1,48.6,69.5,53.4,68.8,56.6z"/>
</svg>