<svg version="1.1" class="thermometre" xmlns="http://www.w3.org/2000/svg" x="0" y="0" viewBox="0 0 80 80" xml:space="preserve">
	<style type="text/css">
		.svg-color 	{fill:#505050;}
	</style>
	<g class="svg-color">
		<path d="M41.8,60.3V17.1h-6v43.2c-2.1,1.1-3.5,3.3-3.5,5.8c0,3.6,2.9,6.5,6.5,6.5s6.5-2.9,6.5-6.5C45.3,63.6,43.9,61.4,41.8,60.3z"	/>
		<path d="M49.8,15.1v-2h-4V9c0-3.9-3.1-7-7-7s-7,3.1-7,7c0,0.1,0,49.3,0,49.3c-2.2,2-3.5,4.8-3.5,7.8c0,5.8,4.7,10.5,10.5,10.5 s10.5-4.7,10.5-10.5c0-3-1.3-5.8-3.5-7.8v-8.2h4v-2h-4v-3h4v-2h-4v-3h4v-2h-4v-3h4v-2h-4v-3h4v-2h-4v-3h4v-2h-4v-3h4v-2h-4v-3 L49.8,15.1L49.8,15.1z M47.3,66.1c0,4.7-3.8,8.5-8.5,8.5s-8.5-3.8-8.5-8.5c0-2.8,1.4-5.3,3.5-6.9V9c0-2.8,2.2-5,5-5s5,2.2,5,5v50.2
		C45.9,60.7,47.3,63.2,47.3,66.1z"/>
	</g>
</svg>