<svg version="1.1" class="Consigne-distante" xmlns="http://www.w3.org/2000/svg" x="0" y="0" viewBox="0 0 80 80" xml:space="preserve">
	<style type="text/css">
		.svg-color 	{fill:#505050;}
	</style>
	<g class="svg-color">
		<path d="M40,31.5c-4.7,0-8.5,3.8-8.5,8.5s3.8,8.5,8.5,8.5s8.5-3.8,8.5-8.5S44.7,31.5,40,31.5z M40,51.5c-6.4,0-11.5-5.1-11.5-11.5 S33.6,28.5,40,28.5S51.5,33.6,51.5,40S46.4,51.5,40,51.5z"/>
		<polygon points="58,37.9 42.1,37.9 42.1,22 37.9,22 37.9,37.9 22,37.9 22,42.1 37.9,42.1 37.9,58 42.1,58 42.1,42.1 58,42.1 "/>
		<path d="M40,1C18.5,1,1,18.5,1,40s17.5,39,39,39s39-17.5,39-39S61.5,1,40,1z M42,73.9V67h-4v6.9C20.8,72.9,7.1,59.2,6.1,42H13v-4 H6.1C7.1,20.8,20.8,7.1,38,6.1V13h4V6.1C59.2,7,73,20.8,74,38h-7v4h7C73,59.2,59.2,73,42,73.9z"/>
	</g>
</svg>