<svg version="1.1" class="Pression" xmlns="http://www.w3.org/2000/svg" x="0px" y="0px" viewBox="0 0 80 80" xml:space="preserve">
	<style type="text/css">
		.svg-color 	{fill:#505050;}
	</style>
	<g class="svg-color">
	<circle cx="40" cy="40" r="2.4"/>
	<path d="M40,1C18.5,1,1,18.5,1,40s17.5,39,39,39s39-17.5,39-39S61.5,1,40,1z M40,75.7c-19.7,0-35.7-16-35.7-35.7S20.3,4.3,40,4.3
		s35.7,16,35.7,35.7S59.8,75.7,40,75.7z"/>
	<path d="M40,7C21.9,7,7,21.9,7,40c0,18.2,14.8,33,33,33s33-14.8,33-33C73,21.9,58.2,7,40,7z M71.6,45.5c-0.2,1.3-0.5,2.6-0.9,3.9
		L66,47.9l-0.3,1l4.7,1.5c-0.4,1.3-1,2.5-1.5,3.7l-4.4-2.2L64,52.8l4.4,2.2c-0.6,1.2-1.3,2.3-2.1,3.4l-4-2.9l-0.6,0.8l4,2.9
		c-0.8,1.1-1.7,2.1-2.6,3.1l-4.4-4.4l0.6-0.6l-2.9-2.9l-1.9,1.9l2.9,2.9l0.6-0.6l4.4,4.4c-5.8,5.6-13.6,9-22.3,9
		c-8.6,0-16.5-3.4-22.3-9l4.4-4.4l0.6,0.6l2.9-2.9l-1.9-1.9l-2.9,2.9l0.6,0.6l-4.4,4.4c-0.9-1-1.8-2-2.6-3.1l4-2.9l-0.6-0.8l-4,2.9
		c-0.8-1.1-1.5-2.2-2.1-3.4l4.4-2.2l-0.5-0.9l-4.4,2.2c-0.6-1.2-1.1-2.4-1.5-3.7l4.7-1.5l-0.3-1l-4.7,1.5c-0.4-1.3-0.7-2.6-0.9-3.9
		l4.9-0.8l-0.2-1l-4.9,0.8c-0.2-1.3-0.3-2.7-0.3-4H16v-1H8.1c0-1.4,0.1-2.7,0.3-4l4.9,0.8l0.2-1l-4.9-0.8c0.2-1.3,0.5-2.6,0.9-3.9
		l4.7,1.5l0.3-1l-4.7-1.5c0.4-1.3,1-2.5,1.5-3.7l4.4,2.2l0.5-0.9L11.8,25c0.6-1.2,1.3-2.3,2.1-3.4l4,2.9l0.6-0.8l-4-2.9
		c0.8-1.1,1.7-2.1,2.6-3.1l4.4,4.4l-0.6,0.6l2.9,2.9l1.9-1.9l-2.9-2.9l-0.6,0.6L17.8,17c1-0.9,2-1.8,3.1-2.6l2.9,4l0.8-0.6l-2.9-4
		c1.1-0.8,2.2-1.5,3.4-2.1l2.2,4.4l0.9-0.5L26,11.3c1.2-0.6,2.4-1.1,3.7-1.5l1.5,4.7l1-0.3l-1.5-4.7c1.3-0.4,2.6-0.7,3.9-0.9l0.8,4.9
		l1-0.2l-0.8-4.9c1.3-0.2,2.7-0.3,4-0.3V16h1V8.1c1.4,0,2.7,0.1,4,0.3l-0.8,4.9l1,0.2l0.8-4.9c1.3,0.2,2.6,0.5,3.9,0.9L48,14.2l1,0.3
		l1.5-4.7c1.3,0.4,2.5,1,3.7,1.5L52,15.7l0.9,0.5l2.2-4.4c1.2,0.6,2.3,1.3,3.4,2.1l-2.9,4l0.8,0.6l2.9-4c1.1,0.8,2.1,1.7,3.1,2.6
		L58,21.5l-0.6-0.6l-2.9,2.9l1.9,1.9l2.9-2.9l-0.6-0.6l4.4-4.4c0.9,1,1.8,2,2.6,3.1l-4,2.9l0.6,0.8l4-2.9c0.8,1.1,1.5,2.2,2.1,3.4
		L64,27.3l0.5,0.9l4.4-2.2c0.6,1.2,1.1,2.4,1.5,3.7l-4.7,1.5l0.3,1l4.7-1.5c0.4,1.3,0.7,2.6,0.9,3.9l-4.9,0.8l0.2,1l4.9-0.8
		c0.2,1.3,0.3,2.7,0.3,4h-7.9v1H72c0,1.4-0.1,2.7-0.3,4l-4.9-0.8l-0.2,1L71.6,45.5z"/>
	<path d="M49.9,47.5c-0.3-0.3-0.6-0.5-0.9-0.7c-0.3-0.2-0.8-0.4-1.2-0.6c-0.4-0.2-0.9-0.4-1.3-0.7
		c-0.5-0.3-0.9-0.7-1.3-1c-0.8-0.6-1.6-1.4-2.2-2.3c0.5-0.6,0.7-1.4,0.7-2.2c0-2-1.7-3.7-3.7-3.7c-0.3,0-0.7,0.1-1,0.1
		c-0.2-0.3-0.4-0.6-0.6-0.9c-0.7-1.1-1.5-2.2-2.3-3.4c-1.5-2.3-3.1-4.6-4.5-6.8c-1.5-2.2-2.8-4.2-4-5.9c-1.1-1.8-2.1-3.2-2.8-4.2
		c-0.4-0.5-0.7-1-0.9-1.1c-0.2-0.1-0.4-0.2-0.4-0.2s0,0.2,0.1,0.5c0.1,0.3,0.4,0.8,0.7,1.3c0.6,1,1.5,2.5,2.6,4.3
		c1.1,1.8,2.4,3.9,3.7,6.1c1.3,2.3,2.8,4.6,4.2,7c0.7,1.1,1.4,2.3,2.1,3.5c0.2,0.3,0.3,0.5,0.5,0.8c-0.7,0.7-1.1,1.6-1.1,2.6
		c0,2,1.7,3.7,3.7,3.7c0.4,0,0.7-0.1,1-0.2c0.4,1,0.8,1.9,1.1,3c0.1,0.6,0.2,1.1,0.3,1.6c0.1,0.5,0.1,1,0.1,1.5s0,1,0.1,1.4
		c0,0.4,0.1,0.7,0.2,1c0.1,0.3,0.1,0.6,0.4,0.7c0.1,0.1,2.3-0.2,4.1-1.3c1.8-1.2,2.6-2.5,2.7-2.6c0.2-0.3,0.3-0.4,0.3-0.6
		C50.4,47.9,50.1,47.7,49.9,47.5z"/>
	</g>
</svg>
