<svg version="1.1" class="Vanne" xmlns="http://www.w3.org/2000/svg" x="0" y="0" viewBox="0 0 80 80" xml:space="preserve"> 
	<style type="text/css">
		.svg-color 	{fill:#505050;}
	</style>
	<g class="svg-color">
		<path d="M79,35.9c-0.4-3.9-1.4-7.7-3-11.5c-0.7-1.2-2.5-1.7-3.2-3c-0.8-1.4-0.2-3.3-1-4.5l0,0c-2.3-3.2-5.1-6-8.3-8.3 c-1.2-0.8-3-0.3-4.4-1.1c-1.3-0.8-1.8-2.6-3-3.3C52.5,2.6,48.6,1.5,44.6,1c-1.4-0.1-2.8,1.3-4.3,1.3c-1.6,0-2.9-1.5-4.4-1.3l0,0 C32,1.4,28.2,2.4,24.4,4c-1.2,0.7-1.7,2.5-3,3.2c-1.4,0.8-3.3,0.2-4.5,1l0,0c-3.2,2.3-6,5.1-8.3,8.2c-0.9,1.2-0.3,3.1-1.1,4.4 c-0.8,1.3-2.6,1.7-3.3,3C2.6,27.4,1.5,31.3,1,35.3c-0.1,1.5,1.3,2.8,1.3,4.4c0,1.6-1.5,2.9-1.3,4.4l0,0c0.4,3.9,1.4,7.7,3,11.5	c0.7,1.2,2.5,1.7,3.2,3c0.8,1.4,0.2,3.3,1,4.5l0,0c2.3,3.2,5.1,6,8.2,8.3c1.2,0.9,3,0.3,4.4,1.1c1.3,0.8,1.8,2.6,3,3.3 c3.6,1.6,7.5,2.7,11.5,3.2c1.5,0.1,2.8-1.3,4.4-1.3c1.6,0,2.9,1.5,4.4,1.3l0,0c3.9-0.4,7.7-1.4,11.5-3c1.2-0.7,1.7-2.5,3-3.2	c1.4-0.8,3.3-0.2,4.5-1l0,0c3.2-2.3,6-5.1,8.3-8.2c0.9-1.2,0.3-3,1.1-4.4c0.8-1.3,2.6-1.8,3.3-3c1.6-3.6,2.7-7.5,3.2-11.5 c0.1-1.5-1.3-2.8-1.3-4.4C77.6,38.7,79.1,37.4,79,35.9L79,35.9z M9.3,33.8c2-9.6,8.4-18.1,18-22.4c7.5-3.3,15.5-3.4,22.7-1 c0.2,0.1,1.3,0.7,1.9,1.9c0.1,0.2,0.1,0.3,0.2,0.4l-7.8,13.4c-3.2-1-6.9-0.9-10.2,0.6c-4.4,1.9-7.3,5.7-8.3,10.1H10.3 c-0.1-0.1-0.2-0.2-0.3-0.4C9.2,35.3,9.3,33.8,9.3,33.8z M48.2,35.4v9.4L40,49.5l-8.1-4.7v-9.4l8.2-4.7L48.2,35.4z M51.8,67.9	c-0.6,1.2-1.8,1.8-1.9,1.9c-15.1,5.1-32-2.1-38.5-17c-0.9-2.1-1.6-4.3-2.1-6.5l0,0c0,0-0.1-1.5,0.7-2.6c0.1-0.1,0.2-0.3,0.3-0.4	h15.5c0.2,0.9,0.5,1.8,0.9,2.7c3,6.8,10.6,10.2,17.6,8L52,67.4C51.9,67.6,51.9,67.7,51.8,67.9z M60.7,63.6L60.7,63.6 c0,0-1.2,0.8-2.6,0.7c-0.2,0-0.3,0-0.5-0.1l-7.7-13.4c4.5-4.1,6-10.7,3.4-16.6c-0.8-1.9-2-3.5-3.4-4.8L57.7,16c0.1,0,0.3,0,0.5-0.1	c1.3-0.1,2.6,0.7,2.6,0.7l0,0c3.3,2.9,6,6.5,7.9,10.8C74.3,40.2,70.7,54.8,60.7,63.6z"/>
		<circle cx="40" cy="40.1" r="2.4"/> 
	</g>
</svg>