<svg version="1.1" class="O2" xmlns="http://www.w3.org/2000/svg" x="0" y="0" viewBox="0 0 80 80" xml:space="preserve"> 
	<style type="text/css">
		.svg-color 	{fill:#505050;}
	</style>
	<g class="svg-color">
		<path d="M30.3 7.8c7.4 0 13.8 2.7 19.3 7.8 5.5 5.2 8.3 11.5 8.3 19 0 7.6-2.7 14-8.1 19.2 -5.4 5.2-11.9 7.9-19.5 7.9 -7.3 0-13.7-2.6-19.2-7.7C5.6 48.8 2.8 42.5 2.8 35c0-7.6 2.7-14 8.1-19.3C16.3 10.5 22.8 7.9 30.3 7.8L30.3 7.8zM46.1 50.3c4.3-4.3 6.5-9.5 6.5-15.7 0-6-2.2-11.1-6.7-15.4s-9.7-6.3-15.6-6.3c-6.2 0-11.5 2.1-15.8 6.4C10.2 23.6 8 28.8 8 35c0 6 2.2 11.1 6.7 15.4 4.5 4.2 9.7 6.3 15.6 6.3C36.5 56.7 41.8 54.6 46.1 50.3z"/> 
		<path d="M58.2 68.5l11.6-11.2c0.2-0.1 0.4-0.3 0.6-0.5 0.2-0.2 0.4-0.4 0.6-0.6 0.9-0.9 1.8-1.9 2.6-3 0.8-1.1 1.2-2.3 1.2-3.6 0-1.8-0.7-3.4-2-4.5 -1.3-1.2-2.9-1.8-4.7-1.8 -1.1 0-2.2 0.3-3.2 0.9 -1 0.6-1.8 1.3-2.4 2.3 -0.2 0.4-0.4 0.9-0.6 1.4 -0.1 0.5-0.2 1-0.3 1.5 0 0.2 0 0.3 0 0.5 0 0.2 0 0.3 0 0.5 0 0.1 0 0.1 0 0.2 0 0.1 0 0.1 0 0.2l-3 0c0-0.1 0-0.2 0-0.3 0-0.1 0-0.2 0-0.3 0-2.8 0.9-5.1 2.7-6.9s4.2-2.8 7-2.8c1.3 0 2.5 0.2 3.6 0.6 1.1 0.4 2.1 1.1 3 2.1 0.9 0.9 1.6 1.9 2.1 3 0.5 1.1 0.8 2.3 0.8 3.5 0 2-0.5 3.7-1.5 5.1 -1 1.4-2.2 2.7-3.5 4 -0.1 0.2-0.3 0.3-0.4 0.5 -0.2 0.1-0.3 0.3-0.4 0.4l-9.4 8.9h15.1v2.8H58.2V68.5z"/> 
	</g>
</svg>