<svg version="1.1" class="Compteur" xmlns="http://www.w3.org/2000/svg" x="0" y="0" viewBox="0 0 80 80" xml:space="preserve">
	<style type="text/css">
		.svg-color 	{fill:#505050;}
	</style>
	<g class="svg-color">
		<path d="M78 62H2V18h76V62zM6 58h68V22H6V58z"/> 
		<path d="M8 24v32h20V24H8zM26.4 51.2H11.1v-3.8H17V32.6l-5.1 2.8 -1.4-3.5 7.3-3.8h3.6v19.3h5C26.4 47.4 26.4 51.2 26.4 51.2z"/> 
		<path d="M30 24v32h20V24H30zM48 51.2H32.5V48c0 0 4.4-4.4 7.3-7.4 1.5-1.5 2.8-3.4 2.8-5.8 0-1.8-1.2-3.2-3.3-3.2 -2.3 0-4 1.5-4.7 2.2l-2.3-2.9c1-0.9 3.7-3.1 7.4-3.1 6 0 7.5 3.9 7.5 6.7 0 5.7-5.6 9.2-8.9 12.7H48V51.2z"/> 
		<path d="M52 24v32h20V24H52zM59.4 51.6c-2.7 0-4.6-0.3-4.9-0.4v-3.7c1.3 0.2 2.9 0.5 5.4 0.5 2.9 0 5.6-0.8 5.6-3.7 0-3.9-5.8-3.3-8.2-3.3v-3.3c2.6 0 7 0.5 7-3.4 0-1.8-1.2-2.9-3.7-2.9 -2.1 0-4.5 0.7-5.5 1v-3.6c0.5-0.2 2.9-1 5.9-1 5.7 0 7.7 2.9 7.7 5.8 0 2.7-1.2 4.4-3.6 5.4 2.6 0.3 4.8 2.1 4.8 5.2C69.9 50.7 63.3 51.6 59.4 51.6z"/> 
		<rect x="2" y="2" width="76" height="2"/> 
		<rect x="2" y="76" width="76" height="2"/> 
	</g>
</svg>