<svg version="1.1" class="Niveau" xmlns="http://www.w3.org/2000/svg" x="0px" y="0px" viewBox="0 0 80 80" xml:space="preserve">
	<style type="text/css">
		.svg-color 	{fill:#505050;}
	</style>
	<g class="svg-color">
		<path d="M40,4.6c19.7,0,35.8,16,35.8,35.8S59.7,76.1,40,76.1S4.2,60.1,4.2,40.4S20.3,4.6,40,4.6 M40,1.6
			C18.6,1.6,1.2,19,1.2,40.4S18.6,79.1,40,79.1s38.8-17.3,38.8-38.8S61.4,1.6,40,1.6L40,1.6z"/>
		<path d="M72,29l-0.2-0.6l-0.5-0.1c-3.2-0.7-5.6-0.9-7-0.7c-1.3,0.1-2.6,0.8-4.1,1.6c-2.4,1.2-5.1,2.6-8.1,2.3
			c-2.1-0.1-3.6-1.1-5.2-2.2c-2.2-1.4-4.4-2.9-7.8-2.3c-2.1,0.3-3.9,0.8-5.7,1.3c-2.8,0.8-5.4,1.5-8.6,1.4c-2.3-0.1-4.2-0.8-6-1.4
			c-2.2-0.7-4.2-1.4-6.7-1C11,27.6,9.7,28,8.4,28.7L8,28.9l-0.2,0.4C6.7,32.7,6.1,36.4,6.1,40c0,18.7,15.2,33.9,33.9,33.9
			s33.9-15.2,33.9-33.8C73.9,36.3,73.2,32.6,72,29z M57,67H47v-2h10V67z M57,62h-7v-2h7V62z M57,57h-7v-2h7V57z M57,52H47v-2h10V52z
			 M57,47h-7v-2h7V47z M57,42h-7v-2h7V42z M57,37H47v-2h10V37z"/>
		<rect x="50" y="25" width="7" height="2"/>
		<rect x="47" y="20" width="10" height="2"/>
		<rect x="50" y="15" width="7" height="2"/>
	</g>
</svg>
