<svg version="1.1" class="Securite" xmlns="http://www.w3.org/2000/svg" x="0" y="0" viewBox="0 0 80 80" xml:space="preserve">
	<style type="text/css">
		.svg-color 	{fill:#505050;}
	</style>
	<g class="svg-color">
		<path d="M38.3 76.8c-0.4-0.2-3.9-1.6-8.2-5.8 -5.6-5.4-10-12.7-13-21.7 -7.4-22.1-5.4-32.7-5.2-33.9l0.2-0.9 9-12 18.8 1.4 18.8-1.4 9 12 0.2 0.9c0.3 1.1 2.3 11.8-5.2 33.9 -3 9-7.4 16.3-13 21.7 -4.3 4.2-7.8 5.7-8.2 5.8l-1.6 0.6L38.3 76.8zM19.9 18l0 0.6c-0.2 3.2-0.2 12.4 5.1 28 4.2 12.4 10.3 18.3 13.6 20.7l1.2 0.9 1.2-0.9c3.3-2.4 9.5-8.4 13.6-20.7 5.3-15.6 5.3-24.8 5.1-28l0-0.6 -5.1-6.8 -14.9 1.1L25 11.2 19.9 18z"/> 
		<path d="M57.2 19.1l0-0.2 -3.7-5 -13.6 1 -13.6-1 -3.7 5 0 0.2c-0.2 3.1 0 11.9 5 26.7 3.8 11.1 9.2 16.6 12.1 18.9l0.3 0.2 0.3-0.2c2.9-2.3 8.3-7.8 12.1-19C57.2 30.9 57.3 22.2 57.2 19.1zM51.2 45.4c-3.5 10.5-8.6 15.9-11.4 18.2V36.9h-14c-2.4-9.3-2.5-15.1-2.4-17.6l3.2-4.3 13.1 1v20.9h14C53.1 39.4 52.3 42.3 51.2 45.4z"/>
	</g>
</svg>