<svg version="1.1" class="Puissance" xmlns="http://www.w3.org/2000/svg" x="0px" y="0px" viewBox="0 0 80 80" xml:space="preserve">
	<style type="text/css">
		.svg-color 	{fill:#505050;}
	</style>
	<g class="svg-color">
		<path d="M28.5,66.5l6.4,6.8c0,0,1.1,1.5,4.2,1.5s4.1-1.4,4.1-1.4l9.3-9.3L28.5,66.5z"/>
		<polygon points="28.3,61.8 28.3,64.8 52.6,62.3 52.6,59.3 	"/>
		<polygon points="28.3,51.8 28.3,54.8 52.6,52.3 52.6,49.3 	"/>
		<polygon points="28.3,56.8 28.3,59.8 52.6,57.3 52.6,54.3 	"/>
		<path d="M31.3,49.4c0-0.3,0-2.7-2-5.9c-1.9-3-3.5-4.6-3.5-4.6c-3.3-3.6-5.2-8.3-5.2-13.2
			C20.6,15,29.3,6.3,40,6.3S59.4,15,59.4,25.7c0,4.9-1.8,9.6-5.2,13.2c-0.1,0.1-1.6,1.7-3.5,4.6c-1,1.6-1.1,3.5-1.1,3.7v1l3-0.3v-0.7
			c0-0.3,0.1-1.3,0.6-2c1.8-2.7,3.2-4.2,3.2-4.2c3.9-4.2,6-9.6,6-15.2C62.4,13.4,52.3,3.4,40,3.4c-12.4,0-22.4,10.1-22.4,22.4
			c0,5.7,2.1,11.1,6,15.3c0,0,1.5,1.5,3.1,4.1c1.5,2.4,1.5,4.2,1.5,4.2v1l3-0.3L31.3,49.4z"/>
		<rect x="67.7" y="26" width="7.8" height="1.5"/>
		<polygon points="66.9,33.2 74.5,35.2 74.1,36.7 66.5,34.7 	"/>
		<polygon points="64.3,39.9 71.1,43.8 70.3,45.1 63.6,41.2 	"/>
		<polygon points="15.7,39.9 16.4,41.2 9.7,45.1 8.9,43.8 	"/>
		<polygon points="13.1,33.1 13.5,34.6 5.9,36.6 5.5,35.2 	"/>
		<rect x="4.5" y="26" width="7.8" height="1.5"/>
		<polygon points="5.9,16.8 13.5,18.8 13.1,20.3 5.5,18.3 	"/>
		<polygon points="9.6,8.3 16.4,12.2 15.6,13.5 8.9,9.6 	"/>
		<polygon points="70.4,8.2 71.2,9.6 64.4,13.5 63.6,12.2 	"/>
		<polygon points="74,16.8 74.5,18.3 66.9,20.4 66.5,18.9 	"/>
		<polygon points="33.8,41.9 47.1,29.1 40.9,23.3 47.1,11.9 33.8,24.3 40.2,30.3 	"/>
	</g>
</svg>
