<svg version="1.1" class="Conductivite" xmlns="http://www.w3.org/2000/svg" x="0px" y="0px" viewBox="0 0 80 80" xml:space="preserve">
	<style type="text/css">
		.svg-color 	{fill:#505050;}
	</style>
	<g class="svg-color">
		<path d="M40,4.3c19.7,0,35.8,16,35.8,35.8S59.7,75.7,40,75.7S4.2,59.7,4.2,40S20.3,4.3,40,4.3 M40,1.3
		C18.6,1.3,1.2,18.6,1.2,40S18.6,78.7,40,78.7s38.8-17.3,38.8-38.8S61.4,1.3,40,1.3L40,1.3z"/>
		<path d="M6.1,39.7c0,18.6,15.2,33.8,33.9,33.8c18.7,0,33.9-15.2,33.9-33.9c0-3.6-0.6-7.3-1.7-10.7L72,28.5l-0.4-0.2
		c-1.3-0.7-2.6-1.1-3.7-1.4c-2.5-0.4-4.5,0.3-6.7,1c-1.8,0.6-3.7,1.3-6,1.4c-3.2,0.1-5.8-0.6-8.6-1.4c-1.8-0.5-3.6-1-5.7-1.3
		c-3.4-0.6-5.6,0.9-7.8,2.3C31.5,30,30,31,27.9,31.1c-3,0.3-5.7-1.1-8.1-2.3c-1.5-0.8-2.8-1.5-4.1-1.6c-1.4-0.2-3.8,0-7,0.7L8.2,28
		L8,28.6C6.8,32.2,6.1,35.9,6.1,39.7z M59.1,46.9l-8.5,8.9l4.7,3.4L44.6,70l6.6-10.3l-5.8-3.3l7-8.1l-5.1-2.7l6.1-12l6.4,1.9
		l-6.1,8.2L59.1,46.9z"/>
	</g>
</svg>
