<svg version="1.1" class="Consigne-locale" xmlns="http://www.w3.org/2000/svg" x="0" y="0" viewBox="0 0 80 80" xml:space="preserve">
	<style type="text/css">
		.svg-color 	{fill:#505050;}
	</style>
	<g class="svg-color">
		<path d="M40 1C18.5 1 1 18.5 1 40s17.5 39 39 39 39-17.5 39-39S61.5 1 40 1zM40 72.5C22.1 72.5 7.6 57.9 7.6 40S22.1 7.5 40 7.5c18 0 32.5 14.6 32.5 32.5S58 72.5 40 72.5z"/> 
		<path d="M40 14.5c-14 0-25.4 11.4-25.4 25.5S26 65.5 40 65.5 65.5 54.1 65.5 40 54.1 14.5 40 14.5zM40 57.8c-9.8 0-17.8-7.9-17.8-17.8s8-17.7 17.8-17.7S57.8 30.2 57.8 40 49.8 57.8 40 57.8z"/> 
		<circle cx="40" cy="40" r="10.3"/>
	</g>
</svg>