<?xml version="1.0" encoding="utf-8"?>
<!-- Generator: Adobe Illustrator 19.0.0, SVG Export Plug-In . SVG Version: 6.00 Build 0)  -->
<svg version="1.1" id="LogoIBC" xmlns="http://www.w3.org/2000/svg" xmlns:xlink="http://www.w3.org/1999/xlink" x="0px" y="0px"
	 viewBox="0 0 80 80" style="enable-background:new 0 0 80 80;" xml:space="preserve">
<style type="text/css">
	.st0{fill:#0A71B4;}
	.st1{fill:#F5F5F5;}
</style>
<path id="Background" class="st0" d="M49,79.4c-8.1,0-15.6-3.2-21.3-8.9L1,43.6V1h42.6l26.9,26.7c11.9,11.9,11.9,31.1,0,43
	C64.8,76.4,57.1,79.4,49,79.4z"/>
<path id="Contour_1_" class="st1" d="M49,80c-8.3,0-16.1-3.2-21.9-9.1l-27-27V0h43.9l27,27C83,39.1,83,58.8,70.9,70.9
	C65.1,76.8,57.3,80,49,80z M1.6,43.2l26.6,26.6c5.6,5.6,13,8.6,20.8,8.6c7.9,0,15.3-3.1,20.8-8.6c11.5-11.5,11.5-30.2,0-41.7
	L43.2,1.6H1.6V43.2z"/>
<path id="Pastille-IBC" class="st1" d="M49,22.6c-14.6,0-26.4,11.8-26.4,26.4c0,14.6,11.8,26.4,26.4,26.4
	c14.6,0,26.4-11.8,26.4-26.4C75.4,34.4,63.6,22.6,49,22.6z M67.7,38.9c0,5.9-5.5,5.7-5.5,5.7s8.6,0.9,8.6,8.2c0,7.3-6.2,7.9-6.2,7.9
	H51.7V38.9h4.5v17h6.2c0,0,3.8,0.1,3.8-3.3c0-4.9-8.6-5.6-8.6-5.6l-0.2-4.4c0,0,6.1-0.3,6.1-3c0-2.3-2-2.4-2-2.4H42.7v-4.7H61
	C61,32.5,67.7,32.8,67.7,38.9z M47,42v18.8h-4.4V42H47z M49,73.8c-13.7,0-24.8-11.1-24.8-24.8c0-13.7,11.1-24.8,24.8-24.8
	c3.9,0,7.6,0.9,10.9,2.5c-2.5-1-5.1-1.5-8-1.5c-12,0-21.8,9.8-21.8,21.8c0,12,9.8,21.8,21.8,21.8c12,0,21.8-9.8,21.8-21.8
	c0-0.1,0-0.2,0-0.2c0.1,0.7,0.1,1.5,0.1,2.3C73.8,62.7,62.7,73.8,49,73.8z"/>
</svg>
