<?xml-stylesheet type="text/css" rel="stylesheet" href="../css/screen.css"?>
<svg version="1.1" id="Refresh" xmlns="http://www.w3.org/2000/svg" xmlns:xlink="http://www.w3.org/1999/xlink" x="0" y="0" 
	 viewBox="0 0 30 30" xml:space="preserve">
	<path id="svg-aside-refresh" d="M24.7,15C24.7,15,24.7,15,24.7,15c0-6.2-5-11.3-11.2-11.3S2.3,8.8,2.3,15c0,6.2,5,11.2,11.2,11.2
	c3.1,0,6-1.3,8-3.3l-1-1.5l-1-1.5c-1.4,1.7-3.5,2.8-5.9,2.8c-4.3,0-7.7-3.5-7.7-7.7c0-4.3,3.5-7.8,7.7-7.8c4.3,0,7.7,3.5,7.7,7.8
	c0,0,0,0,0,0h-3.1l2.3,3.2l2.3,3.2l2.3-3.2l2.3-3.2H24.7z"/>
</svg>
