<svg version="1.1" class="Generateur" xmlns="http://www.w3.org/2000/svg" x="0px" y="0px" viewBox="0 0 80 160" xml:space="preserve">
	<style type="text/css">
		.svg-ge-generateur-contour	{fill:none; stroke-width:4; stroke-miterlimit:10;}
		.svg-ge-generateur-cercle   {fill:#FFFFFF;}
		.svg-ge-blue-f         {fill:#007edf;} /*fill*/
		.svg-ge-blue-s         {stroke:#007edf;} /*stroke*/
		.svg-ge-green-f        {fill:#50bd00;} /*fill*/
		.svg-ge-green-s        {stroke:#50bd00;} /*stroke*/
		.svg-ge-red-f          {fill:#d70308;} /*fill*/
		.svg-ge-red-s          {stroke:#d70308;} /*stroke*/
	</style>
	<path class="svg-ge-generateur-contour svg-ge-green-s" d="M80,149.894c-38.634,0-69.954-30.896-69.954-69.006c0-38.111,31.32-69.006,69.954-69.006"/>
	<g class="svg-ge-generateur-cercle">
		<path d="M43.848,110.918c0.871,0.408,1.756,0.789,2.666,1.121l2.052-5.639c-0.745-0.271-1.47-0.584-2.183-0.918L43.848,110.918z"/>
		<path d="M40.428,101.652l-3.85,4.59c1.473,1.235,3.044,2.356,4.716,3.325l2.997-5.191C42.921,103.582,41.634,102.664,40.428,101.652z"/>
		<path d="M34.37,94.446l-5.189,2.996c1.461,2.505,3.233,4.808,5.275,6.844l4.234-4.235C37.018,98.384,35.566,96.498,34.37,94.446z"/>
		<path d="M30.815,83.255l-5.975,0.523c0.35,3.94,1.393,7.679,3.009,11.102l5.43-2.532C31.957,89.545,31.102,86.481,30.815,83.255z"/>
		<path d="M30.7,80.887c0-4.097,0.917-7.982,2.549-11.469l-5.437-2.535C25.82,71.141,24.7,75.885,24.7,80.887c0,0.001,0,0.002,0,0.003l6,0C30.7,80.889,30.7,80.888,30.7,80.887z"/>
		<path d="M44.283,57.392l-2.998-5.192c-5.019,2.916-9.21,7.106-12.121,12.13l5.192,2.997C36.741,63.211,40.173,59.779,44.283,57.392z"/>
		<path d="M80,65.211v-8.95c-3.128-2.814-6.788-5.046-10.815-6.516l-2.052,5.637C72.355,57.287,76.833,60.753,80,65.211z"/>
		<path d="M57.851,47.737c-5.007,0-9.744,1.136-13.999,3.135l2.533,5.432c2.803-1.316,5.863-2.166,9.087-2.451l3.867-6.081C58.846,47.75,58.35,47.737,57.851,47.737z"/>
		<path d="M60.23,107.921l-3.864,6.075c0.492,0.022,0.986,0.041,1.484,0.041c8.507,0,16.274-3.225,22.149-8.512v-8.967C75.51,102.887,68.381,107.208,60.23,107.921z"/>
	</g>
	<polygon class="svg-ge-generateur-eclair svg-ge-green-f" points="75.34,79.893 59.56,74.355 68.614,38.882 40.36,81.881 56.141,87.418 47.086,122.893 "/>
</svg>
