<svg version="1.1" class="Debit-vapeur" xmlns="http://www.w3.org/2000/svg" x="0px" y="0px" viewBox="0 0 80 160" xml:space="preserve">
	<style type="text/css">
		.svg-ge-debitvapeur-contour		{fill:none; stroke:#D70308; stroke-width:4; stroke-miterlimit:10;}
		.svg-ge-debitvapeur-symboles	{fill:#D70308;}
		.svg-ge-debitvapeur-variateur	{fill:none;stroke:#FFFFFF;stroke-width:2;stroke-miterlimit:10;}
	</style>	
	<path class="svg-ge-debitvapeur-contour" d="M80,149.9c-38.6,0-70-30.9-70-69s31.3-69,70-69"/>
	<g class="svg-ge-debitvapeur-symboles">
		<polygon points="72,63 64,63 64,55 60,55 60,63 52,63 52,67 60,67 60,75 64,75 64,67 72,67 "/>
		<rect x="52" y="113" width="20" height="4"/>
	</g>
	<g class="svg-ge-debitvapeur-variateur">
		<path d="M29.3,78c1.3-7,3.9-14,7.6-19.7l-9.7-5.4c-4,7.5-6.5,16.1-7,25.1H29.3z"/>
		<path d="M31.9,105c-2.2-5.8-3.4-11.5-3.4-18c0-1.2,0-2,0.1-3h-8.5c0.3,9,2.6,17.1,6.4,24.7L31.9,105z"/>
		<path d="M49.7,128.5c-6.4-4.8-11.7-11-15.4-18.2l-4.9,2.8c4.7,7.5,11,13.9,18.4,18.8L49.7,128.5z"/>
		<path d="M48.5,29.4c-7.3,4.6-13.6,10.8-18.3,18l10.2,5.9c4.1-5,9.1-9.2,14.7-12.4L48.5,29.4z"/>
		<path d="M52.9,26.5l6.5,11.7c6.4-2.8,13.6-4.3,20.6-4.3v-14C70,19.9,61.2,22.3,52.9,26.5z"/>
	</g>
</svg>
