<svg version="1.1" class="Buleur" xmlns="http://www.w3.org/2000/svg" x="0px" y="0px" viewBox="0 0 80 160" xml:space="preserve">
	<style type="text/css">
		.svg-ge-bruleur-flamme			{fill:none; stroke:#FFAA00; /*stroke:#FFFFFF;*/ stroke-width:4; stroke-miterlimit:10;}
	</style>
	<path class="svg-ge-bruleur-flamme" d="M80,10c0,0-1.1,5.4-2.8,9.5c-1.5,3.6-6,8.1-10.1,18.2C65,42.5,61.9,53,61.9,53s-5.4-6.6-6.1-10.7 c-0.4-2.1-1.1-6.9-1.1-6.9s-6.5,7-10.7,17.6c-2.8,7-4,18.7-4,18.7s-1.9-2.8-2.5-4c-0.5-1.2-2.8-6-2.8-6s-7.2,6.7-6.7,16.5	c0.5,9.9,3.8,25,3.8,25l-5.5-3.7c-0.1-0.1-0.1-0.1-0.2-0.2c-2.2-2.8-4.6-7.2-4.6-7.2s-0.4,5.1-0.7,8.3c-0.4,3.2,0.2,7.7,0.2,7.7	l-5.7-1.3C25.9,132.2,50.8,150,80,150"/>
</svg>
