<svg version="1.1" class="Niveau" xmlns="http://www.w3.org/2000/svg" x="0px" y="0px" viewBox="0 0 80 160" xml:space="preserve">
	<style type="text/css">
		.svg-ge-niveau					{fill:none; stroke:#007edf; /*stroke:#FFFFFF;*/ stroke-width:4; stroke-miterlimit:10;}
		.svg-ge-niveau-graduation		{fill:none; /*stroke:#007edf;*/ stroke:#FFFFFF; stroke-width:2.5; stroke-miterlimit:10;}
	</style>
	<g class="svg-ge-niveau-graduation">
		<line x1="63" y1="10" x2="75" y2="10"/>
		<line x1="59" y1="53.4" x2="75" y2="53.4"/>
		<line x1="63" y1="96.6" x2="75" y2="96.6"/>
		<line x1="67" y1="20.8" x2="75" y2="20.8"/>
		<line x1="67" y1="31.7" x2="75" y2="31.7"/>
		<line x1="67" y1="42.5" x2="75" y2="42.5"/>
		<line x1="67" y1="64.2" x2="75" y2="64.2"/>
		<line x1="67" y1="75.1" x2="75" y2="75.1"/>
		<line x1="67" y1="85.9" x2="75" y2="85.9"/>
		<line x1="67" y1="107.5" x2="75" y2="107.5"/>
		<line x1="67" y1="118.3" x2="75" y2="118.3"/>
		<line x1="67" y1="129.2" x2="75" y2="129.2"/>
		<line x1="59" y1="140" x2="75" y2="140"/>
	</g>
	<path class="svg-ge-niveau" d="M80,52.2c-6.5,0-11.4-5.7-17.7-5.8c-3.3,0-8.9,4-14.3,4.4c-4.2,0.3-7.6-3.1-12.8-3 c-8.6,0.1-10.1,4.5-14.2,4.5c-1.7,0-3.2-0.1-4.5-0.3c-3.9,8.7-6.1,18.3-6.1,28.4c0,38.4,31.1,69.6,69.6,69.6"/>
</svg>
